<svg xmlns="http://www.w3.org/2000/svg" viewBox="0 0 1280 760" width="1280" height="760">
  <defs>
    <marker id="arrowA" markerWidth="10" markerHeight="7" refX="9" refY="3.5" orient="auto">
      <polygon points="0 0, 10 3.5, 0 7" fill="#d97757"/>
    </marker>
    <marker id="arrowB" markerWidth="10" markerHeight="7" refX="9" refY="3.5" orient="auto">
      <polygon points="0 0, 10 3.5, 0 7" fill="#7b8b5c"/>
    </marker>
    <marker id="arrowC" markerWidth="10" markerHeight="7" refX="9" refY="3.5" orient="auto">
      <polygon points="0 0, 10 3.5, 0 7" fill="#8c6f5a"/>
    </marker>
    <marker id="arrowE" markerWidth="10" markerHeight="7" refX="9" refY="3.5" orient="auto">
      <polygon points="0 0, 10 3.5, 0 7" fill="#b45309"/>
    </marker>
    <marker id="arrowF" markerWidth="10" markerHeight="7" refX="9" refY="3.5" orient="auto">
      <polygon points="0 0, 10 3.5, 0 7" fill="#9a6fb0"/>
    </marker>
    <marker id="arrowG" markerWidth="10" markerHeight="7" refX="9" refY="3.5" orient="auto">
      <polygon points="0 0, 10 3.5, 0 7" fill="#d97757"/>
    </marker>
    <marker id="arrowH" markerWidth="10" markerHeight="7" refX="9" refY="3.5" orient="auto">
      <polygon points="0 0, 10 3.5, 0 7" fill="#8f8a80"/>
    </marker>
    <style>
    text { font-family: 'Helvetica Neue', Helvetica, Arial, 'PingFang SC', 'Microsoft YaHei', 'Microsoft JhengHei', 'SimHei', sans-serif; }
    .title { font-size: 24px; font-weight: 700; fill: #141413; }
    .subtitle { font-size: 13px; font-weight: 500; fill: #8f8a80; }
    .section { font-size: 13px; font-weight: 700; fill: #8b7355; letter-spacing: 1.4px; }
    .section-sub { font-size: 12px; font-weight: 500; fill: #b4aba0; }
    .node-title { font-size: 18px; font-weight: 700; fill: #141413; }
    .node-sub { font-size: 12px; font-weight: 500; fill: #6b6257; }
    .node-type { font-size: 11px; font-weight: 700; fill: #a29a8f; letter-spacing: 0.08em; }
    .arrow-label { font-size: 12px; font-weight: 600; fill: #6b6257; }
    .legend { font-size: 12px; font-weight: 500; fill: #6b6257; }
    .footnote { font-size: 12px; font-weight: 500; fill: #a29a8f; }
    </style>
  </defs>
  <rect width="1280.0" height="760.0" fill="#f8f6f3"/>
  <text x="48.0" y="48" text-anchor="start" class="title">Hermeship Event Flow</text>
  <text x="48.0" y="72" text-anchor="start" class="subtitle">From Hermes/CLI input to sanitized typed events, route decisions, safe messages, and release evidence</text>
  <line x1="48" y1="100" x2="1232.0" y2="100" stroke="#ded8cf" stroke-width="1"/>
  <rect x="56.0" y="118.0" width="1168.0" height="112.0" rx="16.0" fill="none" stroke="#ded8cf" stroke-width="1.4" stroke-dasharray="5 4"/>
  <text x="28.0" y="174.0" text-anchor="start" dominant-baseline="middle" font-size="14.0" font-weight="600" fill="#6b6257">Input</text>
  <rect x="56.0" y="274.0" width="1168.0" height="144.0" rx="16.0" fill="none" stroke="#ded8cf" stroke-width="1.4" stroke-dasharray="5 4"/>
  <text x="28.0" y="346.0" text-anchor="start" dominant-baseline="middle" font-size="14.0" font-weight="600" fill="#6b6257">Normalize</text>
  <rect x="56.0" y="462.0" width="820.0" height="142.0" rx="16.0" fill="none" stroke="#ded8cf" stroke-width="1.4" stroke-dasharray="5 4"/>
  <text x="28.0" y="533.0" text-anchor="start" dominant-baseline="middle" font-size="14.0" font-weight="600" fill="#6b6257">Deliver</text>
  <rect x="914.0" y="462.0" width="310.0" height="142.0" rx="16.0" fill="none" stroke="#ded8cf" stroke-width="1.4" stroke-dasharray="5 4"/>
  <path d="M 187.0,204.0 L 187.0,224.4 L 208.0,297.6 L 208.0,318.0" fill="none" stroke="#d97757" stroke-width="2.0" marker-end="url(#arrowA)"/>
  <path d="M 451.0,204.0 L 451.0,248.0 L 208.0,248.0 L 208.0,318.0" fill="none" stroke="#b45309" stroke-width="2.0" marker-end="url(#arrowE)"/>
  <path d="M 715.0,204.0 L 715.0,248.0 L 208.0,248.0 L 208.0,318.0" fill="none" stroke="#b45309" stroke-width="2.0" marker-end="url(#arrowE)"/>
  <path d="M 298.0,350.0 L 318.4,350.0 L 367.6,349.0 L 388.0,349.0" fill="none" stroke="#b45309" stroke-width="2.0" marker-end="url(#arrowE)"/>
  <path d="M 586.0,349.0 L 606.4,349.0 L 669.6,350.0 L 690.0,350.0" fill="none" stroke="#b45309" stroke-width="2.0" marker-end="url(#arrowE)"/>
  <path d="M 890.0,350.0 L 910.4,350.0 L 979.6,346.0 L 1000.0,346.0" fill="none" stroke="#7b8b5c" stroke-width="2.0" marker-end="url(#arrowB)" stroke-dasharray="6,4"/>
  <path d="M 1075.0,390.0 L 1075.0,438.0 L 218.0,438.0 L 218.0,506.0" fill="none" stroke="#8c6f5a" stroke-width="2.0" marker-end="url(#arrowC)"/>
  <path d="M 308.0,538.0 L 394.0,538.0" fill="none" stroke="#d97757" stroke-width="2.0" marker-end="url(#arrowA)"/>
  <path d="M 574.0,538.0 L 660.0,538.0" fill="none" stroke="#b45309" stroke-width="2.0" marker-end="url(#arrowE)"/>
  <path d="M 1035.0,206.0 L 1035.0,438.0 L 1062.0,438.0 L 1062.0,506.0" fill="none" stroke="#8c6f5a" stroke-width="2.0" marker-end="url(#arrowC)"/>
  <path d="M 840.0,538.0 L 952.0,538.0" fill="none" stroke="#9a6fb0" stroke-width="2.0" marker-end="url(#arrowF)" stroke-dasharray="6,4"/>
  <rect x="92.0" y="146.0" width="190.0" height="58.0" rx="10.0" fill="#e9f1fb" stroke="#8c6f5a" stroke-width="1.8"/>
  <text x="187.0" y="164.0" text-anchor="middle" class="node-type">HERMES</text>
  <text x="187.0" y="181.0" text-anchor="middle" class="node-title">/api/hermes/hook</text>
  <text x="187.0" y="203.0" text-anchor="middle" class="node-sub">gateway envelope</text>
  <rect x="356.0" y="146.0" width="190.0" height="58.0" rx="10.0" fill="#e9f1fb" stroke="#8c6f5a" stroke-width="1.8"/>
  <text x="451.0" y="164.0" text-anchor="middle" class="node-type">API</text>
  <text x="451.0" y="181.0" text-anchor="middle" class="node-title">POST /event</text>
  <text x="451.0" y="203.0" text-anchor="middle" class="node-sub">IncomingEvent JSON</text>
  <rect x="620.0" y="146.0" width="190.0" height="58.0" rx="10.0" fill="#e9f1fb" stroke="#8c6f5a" stroke-width="1.8"/>
  <text x="715.0" y="164.0" text-anchor="middle" class="node-type">LOCAL</text>
  <text x="715.0" y="181.0" text-anchor="middle" class="node-title">CLI Emit</text>
  <text x="715.0" y="203.0" text-anchor="middle" class="node-sub">send / source paths</text>
  <path d="M 940.0 136.0 L 1114.6 136.0 L 1130.0 151.4 L 1130.0 206.0 L 940.0 206.0 Z" fill="#efe8de" stroke="#d0c3b3" stroke-width="2.0"/>
  <path d="M 1114.6 136.0 L 1114.6 151.4 L 1130.0 151.4" fill="none" stroke="#d0c3b3" stroke-width="2.0"/>
  <line x1="958.0" y1="162.0" x2="1102.0" y2="162.0" stroke="#c4b5fd" stroke-width="1.2"/>
  <line x1="958.0" y1="176.0" x2="1102.0" y2="176.0" stroke="#c4b5fd" stroke-width="1.2"/>
  <line x1="958.0" y1="190.0" x2="1102.0" y2="190.0" stroke="#c4b5fd" stroke-width="1.2"/>
  <line x1="958.0" y1="204.0" x2="1102.0" y2="204.0" stroke="#c4b5fd" stroke-width="1.2"/>
  <text x="1035.0" y="232.0" text-anchor="middle" class="node-title">Fixtures</text>
  <text x="1035.0" y="250.0" text-anchor="middle" class="node-sub">synthetic only</text>
  <rect x="118.0" y="318.0" width="180.0" height="64.0" rx="10.0" fill="#f7ecda" stroke="#d0b893" stroke-width="1.8"/>
  <text x="208.0" y="336.0" text-anchor="middle" class="node-type">INGRESS</text>
  <text x="208.0" y="356.0" text-anchor="middle" class="node-title">Parse + Alias</text>
  <text x="208.0" y="378.0" text-anchor="middle" class="node-sub">kind / event / type</text>
  <rect x="388.0" y="310.0" width="198.0" height="78.0" rx="10.0" fill="#c8e4db" stroke="#8c6f5a" stroke-width="2.0"/>
  <rect x="394.0" y="316.0" width="186.0" height="66.0" rx="7.0" fill="none" stroke="#8c6f5a" stroke-width="1.2" opacity="0.65"/>
  <text x="487.0" y="328.0" text-anchor="middle" class="node-type">PRIVACY</text>
  <text x="487.0" y="355.0" text-anchor="middle" class="node-title">Sanitize Payload</text>
  <text x="487.0" y="377.0" text-anchor="middle" class="node-sub">drop bodies, redact secrets</text>
  <rect x="690.0" y="318.0" width="200.0" height="64.0" rx="10.0" fill="#c8e4db" stroke="#8c6f5a" stroke-width="1.8"/>
  <text x="790.0" y="336.0" text-anchor="middle" class="node-type">ENVELOPE</text>
  <text x="790.0" y="356.0" text-anchor="middle" class="node-title">Typed Body</text>
  <text x="790.0" y="378.0" text-anchor="middle" class="node-sub">Hermes / observer / local</text>
  <ellipse cx="1075.0" cy="313.0" rx="37.5" ry="11.0" fill="#e5e8df" stroke="#7b8b5c" stroke-width="2.2"/>
  <rect x="1000.0" y="313.0" width="150.0" height="66.0" fill="#e5e8df" stroke="#7b8b5c" stroke-width="2.2"/>
  <ellipse cx="1075.0" cy="379.0" rx="37.5" ry="11.0" fill="#e5e8df" stroke="#7b8b5c" stroke-width="2.2"/>
  <ellipse cx="1075.0" cy="335.44" rx="37.5" ry="11.0" fill="none" stroke="#7b8b5c" stroke-opacity="0.45" stroke-width="1.2"/>
  <ellipse cx="1075.0" cy="354.8" rx="37.5" ry="11.0" fill="none" stroke="#7b8b5c" stroke-opacity="0.25" stroke-width="1.2"/>
  <text x="1075.0" y="340.0" text-anchor="middle" class="node-title">Queue</text>
  <text x="1075.0" y="364.0" text-anchor="middle" class="node-sub">pending / capacity</text>
  <rect x="128.0" y="506.0" width="180.0" height="64.0" rx="10.0" fill="#f7ecda" stroke="#d0b893" stroke-width="1.8"/>
  <text x="218.0" y="524.0" text-anchor="middle" class="node-type">ROUTER</text>
  <text x="218.0" y="544.0" text-anchor="middle" class="node-title">Route Match</text>
  <text x="218.0" y="566.0" text-anchor="middle" class="node-sub">glob + metadata</text>
  <rect x="394.0" y="506.0" width="180.0" height="64.0" rx="10.0" fill="#f7ecda" stroke="#d0b893" stroke-width="1.8"/>
  <text x="484.0" y="524.0" text-anchor="middle" class="node-type">RENDER</text>
  <text x="484.0" y="544.0" text-anchor="middle" class="node-title">Render Safe</text>
  <text x="484.0" y="566.0" text-anchor="middle" class="node-sub">compact / inline / raw</text>
  <rect x="660.0" y="506.0" width="180.0" height="64.0" rx="10.0" fill="#efe8de" stroke="#d0c3b3" stroke-width="1.8"/>
  <text x="750.0" y="524.0" text-anchor="middle" class="node-type">BEST EFFORT</text>
  <text x="750.0" y="544.0" text-anchor="middle" class="node-title">Sink Send</text>
  <text x="750.0" y="566.0" text-anchor="middle" class="node-sub">Discord or fake</text>
  <rect x="952.0" y="506.0" width="220.0" height="64.0" rx="10.0" fill="#efe8de" stroke="#d0c3b3" stroke-width="1.8"/>
  <text x="1062.0" y="524.0" text-anchor="middle" class="node-type">CHECK</text>
  <text x="1062.0" y="544.0" text-anchor="middle" class="node-title">Release Preflight</text>
  <text x="1062.0" y="566.0" text-anchor="middle" class="node-sub">docs fields, not live pass</text>
  <rect x="176.5" y="231.0" width="42" height="20" rx="6" fill="#f8f6f3" opacity="0.96"/>
  <text x="197.5" y="245.0" text-anchor="middle" class="arrow-label">hook</text>
  <rect x="308.5" y="218.0" width="42" height="20" rx="6" fill="#f8f6f3" opacity="0.96"/>
  <text x="329.5" y="232.0" text-anchor="middle" class="arrow-label">json</text>
  <rect x="416.0" y="218.0" width="91" height="20" rx="6" fill="#f8f6f3" opacity="0.96"/>
  <text x="461.5" y="232.0" text-anchor="middle" class="arrow-label">client post</text>
  <rect x="311.5" y="319.5" width="63" height="20" rx="6" fill="#f8f6f3" opacity="0.96"/>
  <text x="343.0" y="333.5" text-anchor="middle" class="arrow-label">payload</text>
  <rect x="592.5" y="319.5" width="91" height="20" rx="6" fill="#f8f6f3" opacity="0.96"/>
  <text x="638.0" y="333.5" text-anchor="middle" class="arrow-label">safe fields</text>
  <rect x="910.0" y="318.0" width="70" height="20" rx="6" fill="#f8f6f3" opacity="0.96"/>
  <text x="945.0" y="332.0" text-anchor="middle" class="arrow-label">try_send</text>
  <rect x="615.0" y="408.0" width="63" height="20" rx="6" fill="#f8f6f3" opacity="0.96"/>
  <text x="646.5" y="422.0" text-anchor="middle" class="arrow-label">consume</text>
  <rect x="316.0" y="508.0" width="70" height="20" rx="6" fill="#f8f6f3" opacity="0.96"/>
  <text x="351.0" y="522.0" text-anchor="middle" class="arrow-label">delivery</text>
  <rect x="585.5" y="508.0" width="63" height="20" rx="6" fill="#f8f6f3" opacity="0.96"/>
  <text x="617.0" y="522.0" text-anchor="middle" class="arrow-label">summary</text>
  <rect x="1016.0" y="458.0" width="56" height="20" rx="6" fill="#f8f6f3" opacity="0.96"/>
  <text x="1044.0" y="472.0" text-anchor="middle" class="arrow-label">policy</text>
  <rect x="868.0" y="508.0" width="56" height="20" rx="6" fill="#f8f6f3" opacity="0.96"/>
  <text x="896.0" y="522.0" text-anchor="middle" class="arrow-label">manual</text>
  <rect x="32.0" y="622.0" width="212" height="112" rx="10" fill="#fffaf3" opacity="0.88"/>
  <line x1="42.0" y1="636.0" x2="72.0" y2="636.0" stroke="#b45309" stroke-width="2.0" marker-end="url(#arrowE)"/>
  <text x="82.0" y="640.0" class="legend">Sanitized event data</text>
  <line x1="42.0" y1="658.0" x2="72.0" y2="658.0" stroke="#d97757" stroke-width="2.0" marker-end="url(#arrowA)"/>
  <text x="82.0" y="662.0" class="legend">Routing control</text>
  <line x1="42.0" y1="680.0" x2="72.0" y2="680.0" stroke="#7b8b5c" stroke-width="2.0" marker-end="url(#arrowB)"/>
  <text x="82.0" y="684.0" class="legend">Queue write</text>
  <line x1="42.0" y1="702.0" x2="72.0" y2="702.0" stroke="#9a6fb0" stroke-width="2.0" marker-end="url(#arrowF)"/>
  <text x="82.0" y="706.0" class="legend">Manual live boundary</text>
  <text x="356.0" y="744.0" class="footnote">Default verification is local and deterministic; real Discord/Hermes live checks remain explicit opt-in.</text>
</svg>